# xmcd
#
# Track frame offsets:
#	150
#	11059
#	26235
#	37660
#	52047
#	72567
#	93477
#	105365
#	122035
#	139335
#	159815
#	184287
#	196115
#	216072
#	225857
#	242087
#
# Disc length: 3301 seconds
#
# Revision: 0
# Processed by: cddbd v1.4PL0 Copyright (c) Steve Scherf et al.
# Submitted via: EasyCDDAExtractor 5.0.4.1
#
DISCID=d20ce310
DTITLE=Celso Blues Boy - Vivo
DYEAR=1900
DGENRE=Blues
TTITLE0=Tempos Difíceis
TTITLE1=Blues Motel
TTITLE2=Fumando na Escuridão
TTITLE3=A Isso Chamam Blues
TTITLE4=Sempre Brilhará
TTITLE5=Atrás do Tempo Perdido
TTITLE6=Me Diga O Que É O Amor
TTITLE7=Damas da Noite
TTITLE8=Sem ninguém
TTITLE9=Amor Vazio
TTITLE10=De Um Jeito Blues
TTITLE11=Brilho Da Noite
TTITLE12=Aquarela Do Brasil (In Blues)
TTITLE13=Marginal
TTITLE14=Aumenta Que Isso Aí É Rock And Roll
TTITLE15=Até A Próxima Blues
EXTD=
EXTT0=
EXTT1=
EXTT2=
EXTT3=
EXTT4=
EXTT5=
EXTT6=
EXTT7=
EXTT8=
EXTT9=
EXTT10=
EXTT11=
EXTT12=
EXTT13=
EXTT14=
EXTT15=
PLAYORDER=
